<svg width="278" height="332" viewBox="0 0 278 332" fill="none" xmlns="http://www.w3.org/2000/svg">
<rect width="278" height="332" fill="#06080F" fill-opacity="0.968627"/>
<path d="M0 47C0 21.0426 21.0426 0 47 0H200C225.957 0 247 21.0426 247 47V285C247 310.957 225.957 332 200 332H47C21.0426 332 0 310.957 0 285V47Z" fill="white"/>
<path d="M25 48C25 35.8497 34.8497 26 47 26H200C212.15 26 222 35.8497 222 48V283C222 295.15 212.15 305 200 305H47C34.8497 305 25 295.15 25 283V48Z" fill="#06080F" fill-opacity="0.968627"/>
<path d="M53 80.5C53 73.5964 58.5964 68 65.5 68H159.5C166.404 68 172 73.5964 172 80.5V80.5C172 87.4036 166.404 93 159.5 93H65.5C58.5964 93 53 87.4036 53 80.5V80.5Z" fill="white"/>
<path d="M69 113H278V332H69V113Z" fill="#06080F" fill-opacity="0.968627"/>
<path d="M234.5 155C227.596 155 222 149.404 222 142.5L222 91.5C222 84.5964 227.596 79 234.5 79V79C241.404 79 247 84.5964 247 91.5L247 142.5C247 149.404 241.404 155 234.5 155V155Z" fill="white"/>
<path d="M32 317.5C32 310.596 37.5964 305 44.5 305H97.5C104.404 305 110 310.596 110 317.5V319.5C110 326.404 104.404 332 97.5 332H44.5C37.5964 332 32 326.404 32 319.5V317.5Z" fill="white"/>
<path d="M53 133.5C53 126.596 58.5964 121 65.5 121H159.5C166.404 121 172 126.596 172 133.5V133.5C172 140.404 166.404 146 159.5 146H65.5C58.5964 146 53 140.404 53 133.5V133.5Z" fill="white"/>
<path d="M53 184.5C53 177.596 58.5964 172 65.5 172H116.5C123.404 172 129 177.596 129 184.5V184.5C129 191.404 123.404 197 116.5 197H65.5C58.5964 197 53 191.404 53 184.5V184.5Z" fill="white"/>
<path d="M141.101 316.381C135.85 311.885 135.239 303.983 139.735 298.733L245.245 175.508C249.741 170.257 257.642 169.645 262.893 174.141L265.443 176.324C270.694 180.821 271.306 188.722 266.81 193.973L161.3 317.197C156.804 322.448 148.902 323.06 143.651 318.564L141.101 316.381Z" fill="white"/>
<path d="M160.298 317.485C155.41 322.373 147.485 322.373 142.597 317.485L90.8501 265.739C85.962 260.851 85.962 252.925 90.8501 248.037L93.2235 245.664C98.1116 240.776 106.037 240.776 110.925 245.664L162.671 297.41C167.56 302.298 167.56 310.224 162.671 315.112L160.298 317.485Z" fill="white"/>
</svg>
