<svg width="134" height="160" viewBox="0 0 134 160" fill="none" xmlns="http://www.w3.org/2000/svg">
<rect width="134" height="160" fill="white"/>
<path d="M0 22.6506C0 10.141 10.1428 0 22.6547 0H96.4029C108.915 0 119.058 10.141 119.058 22.6506V137.349C119.058 149.859 108.915 160 96.4029 160H22.6547C10.1428 160 0 149.859 0 137.349V22.6506Z" fill="#002E77"/>
<path d="M12.0508 23.1327C12.0508 17.2771 16.7985 12.5303 22.6551 12.5303H96.4033C102.26 12.5303 107.008 17.2771 107.008 23.1327V136.386C107.008 142.241 102.26 146.988 96.4033 146.988H22.6551C16.7985 146.988 12.0508 142.241 12.0508 136.386V23.1327Z" fill="white"/>
<path d="M25.5469 38.7956C25.5469 35.4686 28.2444 32.7715 31.5721 32.7715H76.8814C80.209 32.7715 82.9066 35.4686 82.9066 38.7956C82.9066 42.1226 80.209 44.8197 76.8814 44.8197H31.5721C28.2444 44.8197 25.5469 42.1226 25.5469 38.7956Z" fill="#002E77"/>
<path d="M33.2598 54.458H134.001V160H33.2598V54.458Z" fill="white"/>
<path d="M113.033 74.6992C109.705 74.6992 107.008 72.0021 107.008 68.6751L107.008 44.0968C107.008 40.7698 109.705 38.0727 113.033 38.0727C116.361 38.0727 119.058 40.7698 119.058 44.0968L119.058 68.6751C119.058 72.0021 116.361 74.6992 113.033 74.6992Z" fill="#002E77"/>
<path d="M15.4238 153.012C15.4238 149.685 18.1214 146.988 21.449 146.988H46.9958C50.3234 146.988 53.021 149.685 53.021 153.012V153.976C53.021 157.303 50.3234 160 46.9958 160H21.449C18.1214 160 15.4238 157.303 15.4238 153.976V153.012Z" fill="#002E77"/>
<path d="M25.5469 64.3376C25.5469 61.0106 28.2444 58.3135 31.5721 58.3135H76.8814C80.209 58.3135 82.9066 61.0106 82.9066 64.3376C82.9066 67.6646 80.209 70.3617 76.8814 70.3617H31.5721C28.2444 70.3617 25.5469 67.6646 25.5469 64.3376Z" fill="#002E77"/>
<path d="M25.5469 88.9157C25.5469 85.5887 28.2444 82.8916 31.5721 82.8916H56.1548C59.4824 82.8916 62.18 85.5887 62.18 88.9157C62.18 92.2427 59.4824 94.9398 56.1548 94.9398H31.5721C28.2444 94.9398 25.5469 92.2427 25.5469 88.9157Z" fill="#002E77"/>
<path d="M68.0125 152.473C65.4815 150.306 65.1865 146.498 67.3537 143.968L118.211 84.5825C120.378 82.052 124.187 81.757 126.718 83.9238L127.947 84.9759C130.478 87.1427 130.773 90.9507 128.606 93.4813L77.7484 152.867C75.5812 155.397 71.7725 155.692 69.2415 153.525L68.0125 152.473Z" fill="#002E77"/>
<path d="M77.2662 153.005C74.91 155.361 71.09 155.361 68.7338 153.005L43.7913 128.067C41.4351 125.711 41.4351 121.892 43.7913 119.536L44.9353 118.392C47.2915 116.037 51.1115 116.037 53.4677 118.392L78.4102 143.33C80.7663 145.686 80.7663 149.506 78.4102 151.861L77.2662 153.005Z" fill="#002E77"/>
</svg>
